<svg xmlns="http://www.w3.org/2000/svg" viewBox="0 0 111 100.51" preserveAspectRatio="none"><defs><style>.cls-1{fill:#231f20;}.cls-2{fill:#fff;}</style></defs><title>Asset 11</title><g id="Layer_2" data-name="Layer 2"><g id="Layer_1-2" data-name="Layer 1"><rect class="cls-1" x="88.67" y="33.86" width="10.75" height="32.04" rx="5.37" ry="5.37"/><path class="cls-2" d="M94.05,67.4a6.88,6.88,0,0,1-6.88-6.87V39.23a6.88,6.88,0,0,1,13.75,0v21.3A6.88,6.88,0,0,1,94.05,67.4Zm0-32a3.88,3.88,0,0,0-3.88,3.87v21.3a3.88,3.88,0,0,0,7.75,0V39.23A3.88,3.88,0,0,0,94.05,35.36Z"/><path class="cls-1" d="M94.05,66.4a5.88,5.88,0,0,1-5.88-5.87V39.23a5.88,5.88,0,0,1,11.75,0v21.3A5.87,5.87,0,0,1,94.05,66.4Zm0-32a4.88,4.88,0,0,0-4.88,4.87v21.3a4.88,4.88,0,0,0,9.75,0V39.23A4.88,4.88,0,0,0,94.05,34.36Z"/><path class="cls-2" d="M94.05,67.9a7.39,7.39,0,0,1-7.38-7.37V39.23a7.38,7.38,0,0,1,14.75,0v21.3A7.38,7.38,0,0,1,94.05,67.9Zm0-32a3.38,3.38,0,0,0-3.38,3.37v21.3a3.38,3.38,0,0,0,6.75,0V39.23A3.37,3.37,0,0,0,94.05,35.86Z"/><rect class="cls-1" x="89.67" y="33.86" width="10.75" height="32.04" rx="5.37" ry="5.37"/><path class="cls-2" d="M95.05,67.4a6.88,6.88,0,0,1-6.88-6.87V39.23a6.88,6.88,0,0,1,13.75,0v21.3A6.88,6.88,0,0,1,95.05,67.4Zm0-32a3.88,3.88,0,0,0-3.88,3.87v21.3a3.88,3.88,0,0,0,7.75,0V39.23A3.88,3.88,0,0,0,95.05,35.36Z"/><path class="cls-1" d="M95.05,66.4a5.88,5.88,0,0,1-5.88-5.87V39.23a5.88,5.88,0,0,1,11.75,0v21.3A5.87,5.87,0,0,1,95.05,66.4Zm0-32a4.88,4.88,0,0,0-4.88,4.87v21.3a4.88,4.88,0,0,0,9.75,0V39.23A4.88,4.88,0,0,0,95.05,34.36Z"/><path class="cls-2" d="M95.05,67.9a7.39,7.39,0,0,1-7.38-7.37V39.23a7.38,7.38,0,0,1,14.75,0v21.3A7.38,7.38,0,0,1,95.05,67.9Zm0-32a3.38,3.38,0,0,0-3.38,3.37v21.3a3.38,3.38,0,0,0,6.75,0V39.23A3.37,3.37,0,0,0,95.05,35.86Z"/><rect x="1.5" y="1.5" width="108" height="97.51"/><path d="M111,100.51H0V0H111Zm-108-3H108V3H3Z"/><rect x="88.67" y="33.86" width="10.75" height="32.04" rx="5.37" ry="5.37"/><path class="cls-2" d="M94.05,67.4a6.88,6.88,0,0,1-6.88-6.87V39.23a6.88,6.88,0,0,1,13.75,0v21.3A6.88,6.88,0,0,1,94.05,67.4Zm0-32a3.88,3.88,0,0,0-3.88,3.87v21.3a3.88,3.88,0,0,0,7.75,0V39.23A3.88,3.88,0,0,0,94.05,35.36Z"/><path class="cls-1" d="M94.05,66.4a5.88,5.88,0,0,1-5.88-5.87V39.23a5.88,5.88,0,0,1,11.75,0v21.3A5.87,5.87,0,0,1,94.05,66.4Zm0-32a4.88,4.88,0,0,0-4.88,4.87v21.3a4.88,4.88,0,0,0,9.75,0V39.23A4.88,4.88,0,0,0,94.05,34.36Z"/><path class="cls-2" d="M94.05,67.4a6.88,6.88,0,0,1-6.88-6.87V39.23a6.88,6.88,0,0,1,13.75,0v21.3A6.88,6.88,0,0,1,94.05,67.4Zm0-32a3.88,3.88,0,0,0-3.88,3.87v21.3a3.88,3.88,0,0,0,7.75,0V39.23A3.88,3.88,0,0,0,94.05,35.36Z"/><rect class="cls-2" x="15.17" y="6.87" width="78" height="79.37" rx="12" ry="12"/><path class="cls-2" d="M81.17,87.73h-54a13.51,13.51,0,0,1-13.5-13.5V18.87a13.52,13.52,0,0,1,13.5-13.5h54a13.51,13.51,0,0,1,13.5,13.5V74.23A13.51,13.51,0,0,1,81.17,87.73Zm-54-79.36a10.51,10.51,0,0,0-10.5,10.5V74.23a10.51,10.51,0,0,0,10.5,10.5h54a10.51,10.51,0,0,0,10.5-10.5V18.87a10.51,10.51,0,0,0-10.5-10.5Z"/><circle class="cls-2" cx="68.22" cy="47.91" r="14.05"/><path d="M68.22,63.46A15.55,15.55,0,1,1,83.78,47.91,15.57,15.57,0,0,1,68.22,63.46Zm0-28.1A12.55,12.55,0,1,0,80.78,47.91,12.56,12.56,0,0,0,68.22,35.36Z"/><circle class="cls-2" cx="25.37" cy="47.52" r="14.05"/><path d="M25.37,63.08A15.56,15.56,0,1,1,40.92,47.52,15.57,15.57,0,0,1,25.37,63.08Zm0-28.11A12.56,12.56,0,1,0,37.92,47.52,12.56,12.56,0,0,0,25.37,35Z"/><circle class="cls-2" cx="46.42" cy="72.24" r="23.5"/><path class="cls-2" d="M46.42,96.24a24,24,0,1,1,24-24A24,24,0,0,1,46.42,96.24Zm0-47a23,23,0,1,0,23,23A23,23,0,0,0,46.42,49.24Z"/><path class="cls-2" d="M46.42,97.44a25.2,25.2,0,1,1,25.2-25.2A25.23,25.23,0,0,1,46.42,97.44Zm0-47a21.8,21.8,0,1,0,21.81,21.8A21.83,21.83,0,0,0,46.42,50.44Z"/><circle class="cls-2" cx="46.42" cy="72.41" r="20.75"/><path class="cls-2" d="M46.42,93.66A21.25,21.25,0,1,1,67.67,72.41,21.28,21.28,0,0,1,46.42,93.66Zm0-41.5A20.25,20.25,0,1,0,66.67,72.41,20.27,20.27,0,0,0,46.42,52.16Z"/><path d="M46.42,94.66A22.25,22.25,0,1,1,68.67,72.41,22.28,22.28,0,0,1,46.42,94.66Zm0-41.5A19.25,19.25,0,1,0,65.67,72.41,19.27,19.27,0,0,0,46.42,53.16Z"/><circle class="cls-2" cx="45.42" cy="72.24" r="4.88"/><path d="M45.42,78.61a6.38,6.38,0,1,1,6.38-6.37A6.38,6.38,0,0,1,45.42,78.61Zm0-9.75a3.38,3.38,0,1,0,3.38,3.38A3.38,3.38,0,0,0,45.42,68.86Z"/><path d="M92.69,4.62H18.27c-7.42,0-13.48,5.4-13.48,12V30.08c0,6.6,6.06,12,13.48,12H33.58a13.89,13.89,0,0,0,11.51-5.81,13.91,13.91,0,0,0,11.52,5.81H92.69c7.42,0,13.48-5.4,13.48-12V16.62C106.17,10,100.11,4.62,92.69,4.62Z"/><path class="cls-2" d="M92.69,43.58H56.61a15.55,15.55,0,0,1-11.52-4.9,15.51,15.51,0,0,1-11.51,4.9H18.27c-8.26,0-15-6.06-15-13.5V16.62c0-7.44,6.72-13.5,15-13.5H92.69c8.26,0,15,6.06,15,13.5V30.08C107.67,37.52,101,43.58,92.69,43.58Zm-47.6-10,1.24,1.82a12.48,12.48,0,0,0,10.28,5.15H92.69c6.61,0,12-4.71,12-10.5V16.62c0-5.79-5.37-10.5-12-10.5H34.06a2.13,2.13,0,0,1-.45,0H18.27c-6.61,0-12,4.71-12,10.5V30.08c0,5.79,5.37,10.5,12,10.5H33.58a12.49,12.49,0,0,0,10.28-5.15Z"/><rect class="cls-1" x="23.27" y="45.42" width="4.2" height="4.2" rx="2.1" ry="2.1"/><rect class="cls-1" x="66.12" y="45.81" width="4.2" height="4.2" rx="2.1" ry="2.1"/></g></g></svg>