<svg xmlns="http://www.w3.org/2000/svg" viewBox="0 0 32.5 32.5"><defs><style>.cls-1,.cls-2,.cls-4{stroke:#fff;stroke-miterlimit:10;}.cls-1{stroke-width:3px;}.cls-2,.cls-4{stroke-width:0.35px;}.cls-3{fill:#fff;}.cls-4{fill:#231f20;}</style></defs><title>Asset 19</title><g id="Layer_2" data-name="Layer 2"><g id="Layer_1-2" data-name="Layer 1"><circle class="cls-1" cx="16.25" cy="16.25" r="14.75"/><circle class="cls-2" cx="16.25" cy="16.25" r="1.28"/><path class="cls-3" d="M24.38,18.93l.15-.88-.6-.32.07-.41,2.27,1.26-.08.44-2.55.42.07-.42Zm.35-.05.86-.12.27,0h0a1.45,1.45,0,0,1-.25-.11l-.77-.4Z"/><path class="cls-3" d="M20.82,23.62a.67.67,0,0,1,.09-1l.7-.66,1.68,1.79-.65.62a.66.66,0,0,1-1,0,.53.53,0,0,1-.08-.66A.55.55,0,0,1,20.82,23.62Zm.34-.26a.35.35,0,0,0,.54,0l.35-.33-.51-.55-.34.32A.36.36,0,0,0,21.16,23.36Zm1.6.41-.48-.51-.31.29c-.23.22-.17.4,0,.52a.34.34,0,0,0,.53,0Z"/><path class="cls-3" d="M17.44,25.22c.08.79-.29,1.32-.94,1.39s-1.13-.38-1.21-1.17.29-1.33.94-1.39S17.36,24.44,17.44,25.22Zm-1.72.17c.06.58.33.9.74.86s.61-.42.55-1-.33-.9-.74-.86S15.66,24.82,15.72,25.39Z"/><path class="cls-3" d="M10.52,24.78l.84-1.33a.51.51,0,1,0-.86-.53l-.83,1.33L9.32,24l.85-1.36a.85.85,0,0,1,1.26-.28.84.84,0,0,1,.29,1.26L10.87,25Z"/><path class="cls-3" d="M6.41,18.31l.25.64,1.95-.77.15.39-1.94.77.25.64-.34.14-.66-1.68Z"/><path class="cls-4" d="M15.32,13.27A4,4,0,0,1,17,10.41c.6-.61,1.14-1.15,1.13-1.85a1.27,1.27,0,0,0-1.45-1.37A1.84,1.84,0,0,0,14.83,9h-1.9a3.55,3.55,0,0,1,3.81-3.48c2.34,0,3.43,1.27,3.44,2.85A3.67,3.67,0,0,1,18.75,11c-.77.74-1.55,1.41-1.6,2.32v.52H15.33Z"/></g></g></svg>